PathFileType  4	(X/Y/Z) C:\Users\antoi\Documents\MyRepositories\mobilecap\ResultsAnalysis
DataRate	CameraRate	NumFrames	NumMarkers	Units	OrigDataRate	OrigDataStartFrame	OrigNumFrames
100.0	100.0	4	51	mm	100.0	120	137
Frame#	Time	r_knee			r_shank_antsup			r_ankle			r_calc			r_5meta			r_toe			L_knee			L_shank_antsup			L_ankle			L_calc			L_5meta			L_toe			r_sh2			r_sh3			r_sh4			L_sh2			L_sh3			r_thigh1			r_thigh2			r_thigh3			r_thigh4			r_thigh5			L_thigh1			L_thigh2			L_thigh3			L_thigh4			r.ASIS			r.PSIS			L.ASIS			L.PSIS			C7			R_Shoulder			L_Shoulder			R_Sternum			L_Sternum			R_humerus			R_elbow_med			R_elbow_lat			R_forearm			R_wrist_radius			R_wrist_ulna			L_humerus			L_elbow_med			L_elbow_lat			L_forearm			L_wrist_radius			L_wrist_ulna			R_HJC			L_HJC			R_HJC_reg			L_HJC_reg			
		X1	Y1	Z1	X2	Y2	Z2	X3	Y3	Z3	X4	Y4	Z4	X5	Y5	Z5	X6	Y6	Z6	X7	Y7	Z7	X8	Y8	Z8	X9	Y9	Z9	X10	Y10	Z10	X11	Y11	Z11	X12	Y12	Z12	X13	Y13	Z13	X14	Y14	Z14	X15	Y15	Z15	X16	Y16	Z16	X17	Y17	Z17	X18	Y18	Z18	X19	Y19	Z19	X20	Y20	Z20	X21	Y21	Z21	X22	Y22	Z22	X23	Y23	Z23	X24	Y24	Z24	X25	Y25	Z25	X26	Y26	Z26	X27	Y27	Z27	X28	Y28	Z28	X29	Y29	Z29	X30	Y30	Z30	X31	Y31	Z31	X32	Y32	Z32	X33	Y33	Z33	X34	Y34	Z34	X35	Y35	Z35	X36	Y36	Z36	X37	Y37	Z37	X38	Y38	Z38	X39	Y39	Z39	X40	Y40	Z40	X41	Y41	Z41	X42	Y42	Z42	X43	Y43	Z43	X44	Y44	Z44	X45	Y45	Z45	X46	Y46	Z46	X47	Y47	Z47	X48	Y48	Z48	X49	Y49	Z49	X50	Y50	Z50	X51	Y51	Z51	

120	1.19000000	1426.01290	539.60785	-61.57589	1484.76946	459.80378	-77.00055	1512.39867	120.75503	-107.17624	1440.46295	70.05945	-144.83365	1647.10973	61.43042	-84.99622	1690.94481	105.28199	-151.89153	1165.19421	535.58511	-353.93589	1128.63591	446.04942	-371.52023	948.81514	166.76477	-291.50311	855.73809	140.67347	-236.16767	1027.60825	49.89205	-318.15517	1090.35883	61.88735	-255.52882	1499.98824	349.99769	-56.54672	1422.97266	458.30488	-33.30630	1420.58497	341.58787	-30.88316	1052.19254	493.43045	-358.39275	1002.76415	382.36644	-344.65330	1405.66555	867.92803	-40.44712	1437.12513	762.38275	-47.91005	1392.29746	721.34007	-14.80828	1301.87516	832.91718	-18.05557	1337.70326	723.90671	-30.36833	1303.69127	814.16869	-379.97939	1287.62894	675.82661	-360.67215	1193.16571	824.51573	-391.14076	1173.83366	688.75423	-377.43655	1358.81594	1070.75868	-74.72585	1174.94602	1057.20630	-127.17845	1343.93551	1062.77213	-327.95879	1165.54963	1063.05713	-235.94151	1244.43976	1621.77730	-198.82377	1284.71443	1547.41780	-27.87257	1272.07183	1547.41973	-363.83619	1346.16846	1508.77873	-165.42618	1341.88170	1506.66272	-224.32224	1243.51076	1389.57550	35.12747	1124.39086	1217.34731	-34.06875	1123.34855	1231.68978	49.73146	1123.38894	1060.42339	83.62398	1137.25038	962.74117	82.08682	1096.05079	981.01991	96.28579	1280.37581	1435.80050	-454.17688	1316.79398	1187.49831	-436.76322	1331.84988	1221.84689	-513.34945	1406.34248	1206.09758	-527.13282	1566.50980	1126.50056	-522.65217	1546.36678	1098.22911	-547.54335	1295.15938	944.37774	-87.42556	1272.89417	946.23965	-293.18021	1313.86921	970.24912	-111.77339	1299.47411	979.21550	-278.41722	
121	1.20000000	1435.88802	538.88390	-60.21300	1493.64377	458.19482	-76.10305	1516.19742	119.19853	-106.97646	1442.36936	71.07154	-144.65726	1649.08370	56.46415	-85.17973	1693.98025	98.93727	-152.10508	1185.33825	534.80116	-355.14041	1145.97469	446.83889	-372.95267	956.98139	173.70432	-292.79829	863.44052	152.61549	-236.58014	1029.44815	51.36645	-318.06621	1092.73112	61.12341	-255.77143	1507.68926	348.15659	-55.86433	1432.21392	457.33167	-31.80660	1428.54326	340.64564	-29.32686	1071.32391	496.83229	-358.57881	1017.92612	387.70673	-344.88068	1420.35852	867.75470	-40.12983	1450.09829	761.73663	-47.91425	1405.11937	721.45127	-14.08344	1316.30413	834.29991	-16.52102	1350.56059	724.77814	-28.87452	1320.81235	814.40634	-378.87603	1306.49532	675.76031	-360.89956	1210.23168	823.59424	-389.81559	1192.54430	687.60988	-377.14531	1374.52622	1071.52275	-73.57669	1190.52574	1058.49442	-125.48488	1359.04330	1063.03234	-326.47717	1180.96872	1063.81783	-234.36463	1257.96174	1622.46840	-197.03660	1298.95385	1548.37588	-26.23578	1284.87298	1548.14632	-361.99601	1360.12744	1509.77363	-163.91650	1355.63159	1507.57929	-222.88028	1258.43188	1390.41913	36.80279	1139.90807	1217.88548	-32.62562	1138.86739	1232.05479	51.23927	1139.77513	1060.70155	84.84051	1154.05472	963.09107	83.06660	1112.79377	981.18119	97.40037	1292.55592	1436.49966	-452.47682	1328.15038	1187.98431	-435.42591	1342.92827	1222.46185	-512.17933	1417.50434	1207.16862	-525.97127	1578.32839	1129.11476	-521.45993	1558.50521	1100.69291	-546.32956	1310.52238	945.33071	-85.70873	1287.84955	946.71331	-291.42391	1329.00471	971.48863	-109.98082	1314.39283	979.63279	-276.46304	
122	1.21000000	1445.81977	538.44503	-58.47844	1502.51512	456.85067	-74.92905	1519.49869	117.86107	-106.73087	1443.85800	71.87174	-144.54108	1650.56297	52.47765	-84.94982	1696.40147	93.41248	-152.02114	1206.82638	533.77636	-356.67427	1164.52222	447.75743	-374.74138	966.63540	181.26769	-294.25880	872.96568	166.01351	-237.06462	1031.61813	53.54627	-317.95512	1095.48867	60.63167	-256.07598	1515.31510	346.61086	-54.83622	1441.58399	456.71860	-29.87006	1436.52457	340.07891	-27.16878	1091.87251	500.32881	-358.86939	1034.52790	393.30128	-345.14329	1434.86056	867.82547	-39.63406	1462.94343	761.37060	-47.59562	1418.01139	721.92049	-12.87478	1330.58038	835.84493	-14.61479	1363.37607	725.91106	-26.92334	1338.51109	814.66761	-377.84505	1326.35904	675.69244	-361.43829	1227.89402	822.34969	-388.72526	1212.18268	686.08684	-377.23808	1390.12272	1072.43534	-72.32216	1205.90847	1059.85866	-123.88056	1374.08923	1063.25092	-324.90143	1196.22995	1064.55503	-232.92696	1271.41226	1623.19775	-195.21412	1313.34534	1549.40335	-24.60004	1297.54669	1548.93232	-360.14099	1374.04888	1510.79859	-162.47232	1369.33445	1508.51039	-221.44419	1273.63025	1391.30423	38.49346	1155.64776	1218.46924	-30.99798	1154.74679	1232.43096	52.92243	1156.69141	1060.98702	86.21734	1171.48542	963.46472	84.15931	1130.14079	981.32883	98.69366	1304.51034	1437.18272	-450.71534	1338.99980	1188.43533	-433.90324	1353.50443	1222.97756	-510.83899	1428.11457	1208.02045	-524.69031	1589.49986	1131.26649	-520.19413	1569.93013	1102.70396	-545.02619	1325.70401	946.41062	-83.88703	1302.76676	947.15529	-289.57590	1344.01391	972.85492	-108.01307	1329.25066	980.02520	-274.35424	
123	1.22000000	1455.79476	538.32345	-56.52609	1511.35998	455.81156	-73.66517	1522.24070	116.78111	-106.55770	1444.89381	72.46309	-144.50190	1651.56905	49.58351	-84.49063	1698.20782	88.82723	-151.88481	1229.59471	532.53867	-358.45184	1184.37064	448.77196	-376.76554	977.93592	189.43640	-295.88608	884.60948	180.90010	-237.71732	1034.21804	56.62409	-317.84771	1098.76684	60.59240	-256.54188	1522.82764	345.38364	-53.68201	1451.05631	456.49036	-27.69347	1444.50202	339.91480	-24.65197	1113.91040	503.84757	-359.29772	1052.71402	399.02083	-345.46709	1449.11862	868.20231	-38.84124	1475.70033	761.36901	-46.86722	1430.94841	722.76167	-11.28630	1344.65462	837.54408	-12.35751	1376.14335	727.31236	-24.62872	1356.66761	814.96753	-376.94368	1347.10110	675.65558	-362.31502	1246.06119	820.76897	-387.90547	1232.63512	684.19322	-377.71746	1405.52990	1073.52319	-70.92232	1221.00591	1061.22642	-122.37546	1389.00531	1063.39728	-323.22686	1211.22425	1065.19409	-231.61624	1284.79166	1623.96920	-193.38128	1327.85701	1550.45657	-22.98950	1310.11866	1549.76484	-358.32003	1387.90722	1511.82930	-161.11736	1382.94738	1509.45604	-220.03652	1289.09025	1392.17861	40.16176	1171.55868	1219.03694	-29.16583	1170.97297	1232.75916	54.79398	1174.11350	1061.22794	87.76018	1189.51197	963.80560	85.36737	1148.07273	981.40731	100.17376	1316.26260	1437.82168	-448.92362	1349.37046	1188.82723	-432.21087	1363.59451	1223.35541	-509.32739	1438.19208	1208.61985	-523.30013	1600.04500	1132.92614	-518.86760	1580.65771	1104.22343	-543.64546	1340.65910	947.61140	-81.92859	1317.61317	947.51709	-287.60405	1358.88969	974.31021	-105.83428	1344.00427	980.35515	-272.07447	
